<?xml version="1.0" standalone="no"?>
<!DOCTYPE svg PUBLIC "-//W3C//DTD SVG 20010904//EN"
 "http://www.w3.org/TR/2001/REC-SVG-20010904/DTD/svg10.dtd">
<svg version="1.0" xmlns="http://www.w3.org/2000/svg"
 width="768.000000pt" height="768.000000pt" viewBox="0 0 768.000000 768.000000"
 preserveAspectRatio="xMidYMid meet">
<metadata>
Created by potrace 1.14, written by Peter Selinger 2001-2017
</metadata>
<g transform="translate(0.000000,768.000000) scale(0.100000,-0.100000)"
fill="#000000" stroke="none">
<path d="M4948 6452 c-17 -3 -18 -28 -19 -340 -1 -185 -2 -347 -2 -359 -1 -17
-7 -23 -22 -23 -12 0 -25 4 -30 9 -20 18 -232 83 -349 107 -68 14 -163 19
-331 18 -179 0 -216 -4 -373 -38 -69 -15 -271 -92 -348 -132 -90 -47 -214
-126 -269 -171 -83 -68 -219 -208 -283 -293 -23 -30 -46 -59 -50 -65 -9 -12
-49 -76 -74 -120 -75 -128 -161 -365 -184 -500 -2 -16 -8 -55 -13 -85 -15 -90
-5 -447 14 -535 14 -64 24 -104 33 -132 6 -18 8 -33 5 -33 -3 0 -1 -6 4 -12 5
-7 20 -42 32 -78 59 -168 157 -333 294 -498 38 -46 67 -85 66 -87 -2 -2 -362
-363 -799 -802 -437 -439 -801 -805 -808 -815 -11 -14 -9 -20 13 -45 61 -66
101 -106 127 -125 l28 -20 822 820 821 819 84 -53 c135 -85 340 -179 436 -199
9 -2 43 -11 75 -19 100 -25 171 -31 387 -31 231 0 280 7 465 62 396 119 757
413 957 780 72 133 144 331 167 463 3 19 8 46 11 60 12 58 17 133 16 255 0
123 -3 172 -15 240 -3 17 -7 51 -10 76 -3 25 -17 86 -31 135 -104 366 -350
704 -667 917 l-86 58 0 319 c0 256 3 320 13 320 8 0 69 -26 137 -59 172 -82
435 -209 619 -298 l156 -75 -1 -152 c-2 -183 2 -210 32 -214 19 -3 22 1 23 35
1 69 9 257 13 325 3 55 0 71 -15 87 -35 37 -125 84 -549 289 -85 41 -182 87
-215 102 -33 15 -100 47 -150 70 -88 41 -122 50 -157 42z m-489 -916 c113 -22
244 -67 366 -127 l100 -50 2 -337 2 -337 -27 35 c-45 57 -176 185 -223 217
-75 50 -192 100 -279 118 -54 11 -279 14 -335 4 -124 -21 -194 -48 -300 -116
-184 -119 -339 -345 -362 -526 -4 -29 -7 -115 -7 -192 0 -117 4 -152 23 -215
60 -196 185 -361 356 -471 178 -114 405 -151 639 -104 85 17 256 101 324 159
183 157 301 384 298 573 0 34 1 63 4 63 3 0 5 180 5 400 0 220 -2 400 -5 400
-7 0 -3 170 4 177 3 3 1 13 -4 22 -5 10 -5 23 -1 30 10 16 162 -132 234 -229
84 -111 173 -281 198 -375 4 -16 15 -55 23 -85 34 -118 45 -214 41 -365 -4
-148 -6 -160 -34 -273 -38 -148 -82 -252 -161 -387 -13 -22 -27 -42 -30 -45
-3 -3 -19 -25 -35 -49 -60 -89 -300 -311 -335 -311 -6 0 -10 -4 -10 -10 0 -5
-5 -10 -11 -10 -6 0 -25 -10 -41 -22 -69 -48 -281 -127 -413 -153 -129 -25
-373 -26 -480 -1 -38 9 -79 18 -90 20 -38 6 -110 29 -120 38 -5 4 -15 8 -22 8
-18 0 -111 44 -185 87 -121 70 -298 221 -367 313 -14 19 -29 37 -32 40 -4 3
-28 38 -54 78 -101 157 -180 368 -200 532 -8 59 -8 298 -1 365 10 99 68 280
127 398 37 73 129 216 167 258 150 168 274 263 448 346 45 21 85 39 90 40 5 1
28 9 51 18 66 23 192 54 258 63 91 13 309 6 404 -12z m-123 -590 c111 -17 218
-65 304 -134 175 -142 271 -313 286 -512 16 -197 -58 -398 -196 -540 -103
-105 -166 -146 -296 -190 -77 -27 -126 -34 -229 -33 -102 0 -135 5 -220 34
-109 38 -196 97 -289 196 -69 75 -94 110 -126 178 -125 268 -68 582 143 799
42 42 141 116 155 116 7 0 12 4 12 8 0 14 151 70 210 78 25 3 46 7 47 8 5 5
160 -2 199 -8z"/>
<path d="M5439 2078 c-1 -7 0 -28 1 -45 5 -103 4 -413 -2 -413 -4 0 -4 -10 0
-22 4 -13 7 -83 7 -155 0 -80 4 -134 10 -136 5 -2 29 -5 53 -6 l42 -2 1 83 c1
104 3 117 27 141 19 19 20 19 41 -5 12 -12 54 -67 93 -120 l71 -98 53 0 c29 0
55 4 58 8 4 7 -63 111 -101 157 -35 42 -103 145 -103 156 0 8 26 41 57 74 128
136 143 154 136 158 -5 2 -32 5 -61 6 l-53 2 -57 -62 c-31 -34 -81 -87 -109
-118 l-53 -56 -1 45 c0 25 0 129 1 233 l1 187 -55 0 c-38 0 -56 -4 -57 -12z"/>
<path d="M5170 2050 c-13 -23 -11 -68 3 -87 5 -7 22 -13 36 -13 85 0 92 112 8
118 -28 2 -39 -2 -47 -18z"/>
<path d="M2583 2042 c-9 -6 -12 -94 -10 -372 l2 -363 48 -4 47 -4 1 103 c1
294 5 447 10 452 3 4 13 -15 22 -41 15 -45 90 -247 160 -430 l32 -83 45 0 c44
0 47 2 60 38 8 20 15 39 15 42 1 3 5 14 10 25 4 11 28 72 52 135 24 63 48 124
53 135 5 11 24 60 42 110 l33 89 3 -287 2 -287 50 0 50 0 0 376 0 375 -57 -1
c-80 -3 -91 -7 -98 -40 -4 -17 -11 -32 -16 -35 -5 -4 -9 -13 -9 -22 0 -8 -6
-29 -14 -46 -8 -18 -39 -97 -70 -177 -30 -80 -66 -172 -80 -205 -23 -57 -25
-59 -34 -35 -19 50 -203 535 -207 548 -5 13 -121 17 -142 4z"/>
<path d="M4235 1861 c-77 -23 -115 -70 -115 -146 0 -72 24 -97 154 -160 132
-64 154 -83 140 -123 -5 -15 -23 -33 -38 -41 -38 -18 -130 -17 -185 3 -70 26
-81 22 -81 -24 0 -62 27 -74 170 -76 103 -2 122 1 155 20 54 30 75 64 81 127
9 99 -12 121 -214 213 -94 43 -106 83 -36 116 l45 22 85 -19 85 -20 15 35 c18
45 8 58 -61 72 -54 11 -163 12 -200 1z"/>
<path d="M4740 1864 c-87 -36 -108 -62 -114 -137 -6 -80 24 -110 184 -188 128
-63 149 -102 78 -144 -43 -25 -132 -23 -210 4 l-58 20 0 -43 c0 -69 15 -75
183 -81 85 -3 104 -1 135 17 51 28 63 38 74 68 38 97 11 174 -77 215 -16 7
-64 29 -105 48 -113 51 -133 85 -76 123 37 23 131 21 199 -5 25 -10 29 -8 47
22 24 39 22 48 -14 66 -30 14 -219 25 -246 15z"/>
<path d="M3499 1838 c-4 -118 10 -448 20 -466 6 -12 27 -33 46 -47 62 -48 235
-44 281 6 22 24 34 24 34 -1 0 -11 3 -20 8 -20 4 -1 24 -3 45 -6 l37 -6 0 281
0 281 -50 0 -50 0 -1 -102 c-1 -181 -6 -272 -17 -300 -16 -40 -83 -80 -132
-80 -57 1 -76 9 -96 40 -17 25 -22 125 -24 430 0 8 -17 12 -50 12 -45 0 -50
-2 -51 -22z"/>
<path d="M5159 1823 c-1 -21 0 -42 1 -48 1 -5 1 -28 0 -50 0 -22 -1 -44 -1
-50 0 -5 2 -89 3 -185 2 -104 7 -178 13 -182 5 -4 29 -8 53 -8 l42 0 0 280 0
280 -55 0 -55 0 -1 -37z"/>
</g>
</svg>
